<svg width="29" height="29" viewBox="0 0 29 29" fill="none" xmlns="http://www.w3.org/2000/svg">
<g id="TimeSquare">
<g id="Edit Square">
<path id="Stroke 1" d="M14.8241 3.58984C6.75696 3.58984 4.06714 6.27953 4.06714 14.3462C4.06714 22.413 6.75696 25.1026 14.8241 25.1026C22.8913 25.1026 25.5811 22.413 25.5811 14.3462" stroke="black" stroke-width="1.19608" stroke-miterlimit="10" stroke-linecap="round" stroke-linejoin="round"/>
<path id="Stroke 3" d="M23.5785 5.39231C23.3038 5.14937 22.984 4.96294 22.6372 4.84366C22.2904 4.72439 21.9236 4.67462 21.5576 4.69719C21.1916 4.71976 20.8336 4.81423 20.5041 4.9752C20.1746 5.13618 19.8801 5.3605 19.6374 5.63535C19.6374 5.63535 14.5566 11.374 12.7971 13.366C11.0376 15.358 12.3319 18.107 12.3319 18.107C12.3319 18.107 15.2392 19.0291 16.9836 17.0604L23.8285 9.3309C24.3176 8.77543 24.566 8.04844 24.5192 7.30983C24.4723 6.57122 24.1339 5.88148 23.5785 5.39231Z" stroke="black" stroke-width="1.19608" stroke-miterlimit="10" stroke-linecap="round" stroke-linejoin="round"/>
<path id="Stroke 5" d="M18.3232 7.1377L22.5097 10.8391" stroke="black" stroke-width="1.19608" stroke-miterlimit="10" stroke-linecap="round" stroke-linejoin="round"/>
</g>
</g>
</svg>
