<svg width="29" height="29" viewBox="0 0 29 29" fill="none" xmlns="http://www.w3.org/2000/svg">
<g id="Bag2">
<g id="Password">
<path id="Stroke 1" d="M13.3856 14.5831C13.3856 15.0092 13.2591 15.4258 13.0223 15.78C12.7854 16.1343 12.4488 16.4103 12.055 16.5732C11.6612 16.736 11.2279 16.7784 10.81 16.6949C10.3921 16.6115 10.0083 16.4059 9.70729 16.1042C9.40627 15.8026 9.20152 15.4184 9.11894 15.0003C9.03637 14.5823 9.07968 14.1491 9.24341 13.7557C9.40713 13.3622 9.6839 13.0262 10.0387 12.7901C10.3935 12.5541 10.8103 12.4285 11.2365 12.4294C11.807 12.4304 12.3538 12.6577 12.7567 13.0615C13.1597 13.4653 13.3859 14.0126 13.3856 14.5831Z" stroke="black" stroke-width="1.19608" stroke-miterlimit="10" stroke-linecap="round" stroke-linejoin="round"/>
<path id="Stroke 3" d="M13.3938 14.583H20.7411V16.7366" stroke="black" stroke-width="1.19608" stroke-miterlimit="10" stroke-linecap="round" stroke-linejoin="round"/>
<path id="Stroke 5" d="M17.4524 16.7366V14.583" stroke="black" stroke-width="1.19608" stroke-miterlimit="10" stroke-linecap="round" stroke-linejoin="round"/>
<path id="Stroke 7" d="M4.15796 14.5831C4.15796 6.51634 6.84779 3.82666 14.9149 3.82666C22.9821 3.82666 25.6719 6.51634 25.6719 14.5831C25.6719 22.6498 22.9821 25.3395 14.9149 25.3395C6.84779 25.3395 4.15796 22.6498 4.15796 14.5831Z" stroke="black" stroke-width="1.19608" stroke-miterlimit="10" stroke-linecap="round" stroke-linejoin="round"/>
</g>
</g>
</svg>
