<svg width="29" height="29" viewBox="0 0 29 29" fill="none" xmlns="http://www.w3.org/2000/svg">
<g id="TwoUsers">
<g id="Ticket">
<path id="Stroke 1" d="M15.6968 4.57837V7.66575" stroke="black" stroke-width="1.19608" stroke-miterlimit="10" stroke-linecap="round" stroke-linejoin="round"/>
<path id="Stroke 3" d="M15.6968 20.7932V23.3747" stroke="black" stroke-width="1.19608" stroke-miterlimit="10" stroke-linecap="round" stroke-linejoin="round"/>
<path id="Stroke 6" d="M15.6968 17.3046V11.1543" stroke="black" stroke-width="1.19608" stroke-miterlimit="10" stroke-linecap="round" stroke-linejoin="round"/>
<path id="Stroke 7" d="M25.164 16.7303C24.5446 16.7109 23.9571 16.4513 23.5258 16.0063C23.0945 15.5614 22.8533 14.9661 22.8533 14.3464C22.8533 13.7268 23.0945 13.1314 23.5258 12.6865C23.9571 12.2415 24.5446 11.9819 25.164 11.9626C25.164 6.43901 25.164 4.46216 14.1163 4.46216C3.0686 4.46216 3.0686 6.43901 3.0686 11.9614C3.68799 11.9808 4.27552 12.2404 4.70681 12.6853C5.1381 13.1303 5.37927 13.7256 5.37927 14.3453C5.37927 14.9649 5.1381 15.5602 4.70681 16.0052C4.27552 16.4501 3.68799 16.7098 3.0686 16.7291C3.0686 22.2538 3.0686 24.2307 14.1163 24.2307C25.164 24.2307 25.164 22.2538 25.164 16.7303Z" stroke="black" stroke-width="1.19608" stroke-miterlimit="10" stroke-linecap="round" stroke-linejoin="round"/>
</g>
</g>
</svg>
